<mxfile host="app.diagrams.net" modified="2023-09-19T13:30:00.971Z" agent="Mozilla/5.0 (Windows NT 10.0; Win64; x64) AppleWebKit/537.36 (KHTML, like Gecko) Chrome/114.0.0.0 Safari/537.36 OPR/100.0.0.0" etag="TUM7CtJYn9BodltH0LVt" version="21.4.0" type="device">
  <diagram name="Page-1" id="JE28-qvH91pAUHiJmZmZ">
    <mxGraphModel dx="1988" dy="1807" grid="1" gridSize="10" guides="1" tooltips="1" connect="1" arrows="1" fold="1" page="1" pageScale="1" pageWidth="827" pageHeight="1169" math="0" shadow="0">
      <root>
        <mxCell id="0" />
        <mxCell id="1" parent="0" />
        <mxCell id="9lfSrHcVwBVfNOKpXZE0-10" value="" style="edgeStyle=orthogonalEdgeStyle;rounded=0;orthogonalLoop=1;jettySize=auto;html=1;" edge="1" parent="1" source="9lfSrHcVwBVfNOKpXZE0-1" target="9lfSrHcVwBVfNOKpXZE0-7">
          <mxGeometry relative="1" as="geometry" />
        </mxCell>
        <mxCell id="9lfSrHcVwBVfNOKpXZE0-11" style="edgeStyle=orthogonalEdgeStyle;rounded=0;orthogonalLoop=1;jettySize=auto;html=1;entryX=0.5;entryY=0;entryDx=0;entryDy=0;exitX=0.25;exitY=1;exitDx=0;exitDy=0;" edge="1" parent="1" source="9lfSrHcVwBVfNOKpXZE0-1" target="9lfSrHcVwBVfNOKpXZE0-6">
          <mxGeometry relative="1" as="geometry" />
        </mxCell>
        <mxCell id="9lfSrHcVwBVfNOKpXZE0-12" style="edgeStyle=orthogonalEdgeStyle;rounded=0;orthogonalLoop=1;jettySize=auto;html=1;entryX=0.5;entryY=0;entryDx=0;entryDy=0;exitX=0.842;exitY=0.98;exitDx=0;exitDy=0;exitPerimeter=0;" edge="1" parent="1" source="9lfSrHcVwBVfNOKpXZE0-1" target="9lfSrHcVwBVfNOKpXZE0-8">
          <mxGeometry relative="1" as="geometry">
            <Array as="points">
              <mxPoint x="360" y="99" />
              <mxPoint x="360" y="130" />
              <mxPoint x="525" y="130" />
            </Array>
          </mxGeometry>
        </mxCell>
        <mxCell id="9lfSrHcVwBVfNOKpXZE0-1" value="Tickets" style="rounded=0;whiteSpace=wrap;html=1;fillColor=#D4E1F5;" vertex="1" parent="1">
          <mxGeometry x="270" y="50" width="120" height="50" as="geometry" />
        </mxCell>
        <mxCell id="9lfSrHcVwBVfNOKpXZE0-16" value="" style="edgeStyle=orthogonalEdgeStyle;rounded=0;orthogonalLoop=1;jettySize=auto;html=1;" edge="1" parent="1" source="9lfSrHcVwBVfNOKpXZE0-3" target="9lfSrHcVwBVfNOKpXZE0-15">
          <mxGeometry relative="1" as="geometry" />
        </mxCell>
        <mxCell id="9lfSrHcVwBVfNOKpXZE0-17" style="edgeStyle=orthogonalEdgeStyle;rounded=0;orthogonalLoop=1;jettySize=auto;html=1;entryX=0.5;entryY=0;entryDx=0;entryDy=0;exitX=0.75;exitY=1;exitDx=0;exitDy=0;" edge="1" parent="1" source="9lfSrHcVwBVfNOKpXZE0-3" target="9lfSrHcVwBVfNOKpXZE0-14">
          <mxGeometry relative="1" as="geometry" />
        </mxCell>
        <mxCell id="9lfSrHcVwBVfNOKpXZE0-18" style="edgeStyle=orthogonalEdgeStyle;rounded=0;orthogonalLoop=1;jettySize=auto;html=1;entryX=0.5;entryY=0;entryDx=0;entryDy=0;exitX=0.25;exitY=1;exitDx=0;exitDy=0;" edge="1" parent="1" source="9lfSrHcVwBVfNOKpXZE0-3" target="9lfSrHcVwBVfNOKpXZE0-13">
          <mxGeometry relative="1" as="geometry" />
        </mxCell>
        <mxCell id="9lfSrHcVwBVfNOKpXZE0-3" value="Orders" style="rounded=0;whiteSpace=wrap;html=1;fillColor=#D4E1F5;" vertex="1" parent="1">
          <mxGeometry x="920" y="320" width="120" height="50" as="geometry" />
        </mxCell>
        <mxCell id="9lfSrHcVwBVfNOKpXZE0-28" style="edgeStyle=orthogonalEdgeStyle;rounded=0;orthogonalLoop=1;jettySize=auto;html=1;entryX=0.5;entryY=0;entryDx=0;entryDy=0;" edge="1" parent="1">
          <mxGeometry relative="1" as="geometry">
            <mxPoint x="295" y="370" as="sourcePoint" />
            <mxPoint x="70" y="430" as="targetPoint" />
            <Array as="points">
              <mxPoint x="295" y="400" />
              <mxPoint x="70" y="400" />
            </Array>
          </mxGeometry>
        </mxCell>
        <mxCell id="9lfSrHcVwBVfNOKpXZE0-30" style="edgeStyle=orthogonalEdgeStyle;rounded=0;orthogonalLoop=1;jettySize=auto;html=1;entryX=0.5;entryY=0;entryDx=0;entryDy=0;" edge="1" parent="1" source="9lfSrHcVwBVfNOKpXZE0-4" target="9lfSrHcVwBVfNOKpXZE0-29">
          <mxGeometry relative="1" as="geometry" />
        </mxCell>
        <mxCell id="9lfSrHcVwBVfNOKpXZE0-33" value="" style="edgeStyle=orthogonalEdgeStyle;rounded=0;orthogonalLoop=1;jettySize=auto;html=1;exitX=0.75;exitY=1;exitDx=0;exitDy=0;" edge="1" parent="1" source="9lfSrHcVwBVfNOKpXZE0-4" target="9lfSrHcVwBVfNOKpXZE0-32">
          <mxGeometry relative="1" as="geometry">
            <Array as="points">
              <mxPoint x="295" y="370" />
              <mxPoint x="295" y="400" />
              <mxPoint x="505" y="400" />
            </Array>
          </mxGeometry>
        </mxCell>
        <mxCell id="9lfSrHcVwBVfNOKpXZE0-4" value="Users" style="rounded=0;whiteSpace=wrap;html=1;fillColor=#D4E1F5;" vertex="1" parent="1">
          <mxGeometry x="235" y="320" width="120" height="50" as="geometry" />
        </mxCell>
        <mxCell id="9lfSrHcVwBVfNOKpXZE0-23" style="edgeStyle=orthogonalEdgeStyle;rounded=0;orthogonalLoop=1;jettySize=auto;html=1;entryX=0.5;entryY=1;entryDx=0;entryDy=0;" edge="1" parent="1" source="9lfSrHcVwBVfNOKpXZE0-5" target="9lfSrHcVwBVfNOKpXZE0-21">
          <mxGeometry relative="1" as="geometry" />
        </mxCell>
        <mxCell id="9lfSrHcVwBVfNOKpXZE0-24" style="edgeStyle=orthogonalEdgeStyle;rounded=0;orthogonalLoop=1;jettySize=auto;html=1;entryX=0.5;entryY=1;entryDx=0;entryDy=0;" edge="1" parent="1" source="9lfSrHcVwBVfNOKpXZE0-5" target="9lfSrHcVwBVfNOKpXZE0-22">
          <mxGeometry relative="1" as="geometry" />
        </mxCell>
        <mxCell id="9lfSrHcVwBVfNOKpXZE0-25" style="edgeStyle=orthogonalEdgeStyle;rounded=0;orthogonalLoop=1;jettySize=auto;html=1;entryX=0.5;entryY=0;entryDx=0;entryDy=0;" edge="1" parent="1" source="9lfSrHcVwBVfNOKpXZE0-5" target="9lfSrHcVwBVfNOKpXZE0-20">
          <mxGeometry relative="1" as="geometry" />
        </mxCell>
        <mxCell id="9lfSrHcVwBVfNOKpXZE0-26" style="edgeStyle=orthogonalEdgeStyle;rounded=0;orthogonalLoop=1;jettySize=auto;html=1;entryX=0.5;entryY=0;entryDx=0;entryDy=0;" edge="1" parent="1" source="9lfSrHcVwBVfNOKpXZE0-5" target="9lfSrHcVwBVfNOKpXZE0-19">
          <mxGeometry relative="1" as="geometry" />
        </mxCell>
        <mxCell id="9lfSrHcVwBVfNOKpXZE0-5" value="Concerts" style="rounded=0;whiteSpace=wrap;html=1;fillColor=#D4E1F5;" vertex="1" parent="1">
          <mxGeometry x="900" y="90" width="120" height="50" as="geometry" />
        </mxCell>
        <mxCell id="9lfSrHcVwBVfNOKpXZE0-6" value="addTickets: AddTicketsResponse (request: AddTicketsRequest)" style="rounded=0;whiteSpace=wrap;html=1;" vertex="1" parent="1">
          <mxGeometry x="20" y="160" width="190" height="50" as="geometry" />
        </mxCell>
        <mxCell id="9lfSrHcVwBVfNOKpXZE0-7" value="getTickets: List&amp;lt;Ticket&amp;gt; (orderId: long)" style="rounded=0;whiteSpace=wrap;html=1;" vertex="1" parent="1">
          <mxGeometry x="260" y="160" width="140" height="50" as="geometry" />
        </mxCell>
        <mxCell id="9lfSrHcVwBVfNOKpXZE0-8" value="updateTickets: void (request: UpdateTicketsRequest)" style="rounded=0;whiteSpace=wrap;html=1;" vertex="1" parent="1">
          <mxGeometry x="440" y="160" width="170" height="50" as="geometry" />
        </mxCell>
        <mxCell id="9lfSrHcVwBVfNOKpXZE0-13" value="createOrder: CreateOrderResponse (request: CreateOrderRequest)" style="rounded=0;whiteSpace=wrap;html=1;" vertex="1" parent="1">
          <mxGeometry x="660" y="430" width="200" height="50" as="geometry" />
        </mxCell>
        <mxCell id="9lfSrHcVwBVfNOKpXZE0-14" value="getAllOrders: GetAllOrdersResponse (userId: Long)" style="rounded=0;whiteSpace=wrap;html=1;" vertex="1" parent="1">
          <mxGeometry x="1110" y="430" width="210" height="50" as="geometry" />
        </mxCell>
        <mxCell id="9lfSrHcVwBVfNOKpXZE0-15" value="getOrder: Order(id: Long)" style="rounded=0;whiteSpace=wrap;html=1;" vertex="1" parent="1">
          <mxGeometry x="895" y="430" width="170" height="50" as="geometry" />
        </mxCell>
        <mxCell id="9lfSrHcVwBVfNOKpXZE0-19" value="addConcert: AddConcertResponse (request: AddConcertRequest)" style="rounded=0;whiteSpace=wrap;html=1;" vertex="1" parent="1">
          <mxGeometry x="730" y="190" width="190" height="50" as="geometry" />
        </mxCell>
        <mxCell id="9lfSrHcVwBVfNOKpXZE0-20" value="getConcert: Concert(id: long)" style="rounded=0;whiteSpace=wrap;html=1;" vertex="1" parent="1">
          <mxGeometry x="1010" y="190" width="170" height="50" as="geometry" />
        </mxCell>
        <mxCell id="9lfSrHcVwBVfNOKpXZE0-21" value="getAllConcerts: GetConcertsResponse()" style="rounded=0;whiteSpace=wrap;html=1;" vertex="1" parent="1">
          <mxGeometry x="750" y="-10" width="170" height="50" as="geometry" />
        </mxCell>
        <mxCell id="9lfSrHcVwBVfNOKpXZE0-22" value="updateConcert: void(request: UpdateConcertRequest)" style="rounded=0;whiteSpace=wrap;html=1;" vertex="1" parent="1">
          <mxGeometry x="1010" y="-10" width="170" height="50" as="geometry" />
        </mxCell>
        <mxCell id="9lfSrHcVwBVfNOKpXZE0-27" value="addUser: AddUserResponse (request: AddUserRequest)" style="rounded=0;whiteSpace=wrap;html=1;" vertex="1" parent="1">
          <mxGeometry x="-30" y="430" width="190" height="50" as="geometry" />
        </mxCell>
        <mxCell id="9lfSrHcVwBVfNOKpXZE0-29" value="getUser: User(id: long)" style="rounded=0;whiteSpace=wrap;html=1;" vertex="1" parent="1">
          <mxGeometry x="210" y="430" width="170" height="50" as="geometry" />
        </mxCell>
        <mxCell id="9lfSrHcVwBVfNOKpXZE0-32" value="deleteUser: void(id: long)" style="rounded=0;whiteSpace=wrap;html=1;" vertex="1" parent="1">
          <mxGeometry x="420" y="430" width="170" height="50" as="geometry" />
        </mxCell>
      </root>
    </mxGraphModel>
  </diagram>
</mxfile>
